<svg width="50" height="50" viewBox="0 0 50 50" fill="none" xmlns="http://www.w3.org/2000/svg">
<path d="M46.0938 18.8045V17.242C46.0943 16.9184 46.0295 16.598 45.9033 16.3C45.7771 16.0019 45.5921 15.7325 45.3594 15.5076C45.1242 15.2848 44.8469 15.1113 44.5436 14.9972C44.2404 14.8832 43.9175 14.8309 43.5938 14.8435C40.7114 14.9216 37.8389 15.214 35 15.7185L33.9688 15.9217C33.7473 13.7293 32.732 11.6935 31.114 10.1977C29.496 8.70175 27.3869 7.84906 25.1839 7.80008C22.981 7.7511 20.8361 8.50923 19.1532 9.93169C17.4703 11.3542 16.3655 13.3429 16.0469 15.5232V15.9295C12.8696 15.2972 9.6446 14.934 6.40625 14.8435C6.08197 14.8342 5.75909 14.8898 5.45666 15.0072C5.15423 15.1246 4.87837 15.3014 4.64536 15.5271C4.41235 15.7528 4.22691 16.0229 4.09997 16.3215C3.97302 16.6201 3.90716 16.941 3.90625 17.2654V18.8279C3.02393 19.008 2.23094 19.4874 1.66148 20.185C1.09202 20.8826 0.781066 21.7555 0.78125 22.656V44.531C0.78125 45.567 1.1928 46.5606 1.92536 47.2932C2.28809 47.6559 2.71871 47.9436 3.19264 48.1399C3.66657 48.3363 4.17452 48.4373 4.6875 48.4373H45.3125C46.3485 48.4373 47.3421 48.0257 48.0746 47.2932C48.8072 46.5606 49.2188 45.567 49.2188 44.531V22.656C49.2244 21.7515 48.9159 20.8731 48.346 20.1707C47.776 19.4682 46.98 18.9854 46.0938 18.8045ZM17.6094 15.742C17.8578 14.1182 18.6319 12.6207 19.8131 11.4791C20.9942 10.3375 22.5171 9.61468 24.1484 9.42162C24.4312 9.3905 24.7155 9.37486 25 9.37475C26.8356 9.37036 28.6071 10.05 29.9688 11.281C30.7884 12.0135 31.4362 12.9179 31.8661 13.9296C32.2959 14.9414 32.4971 16.0355 32.4553 17.134C32.4135 18.2324 32.1298 19.3081 31.6243 20.2843C31.1189 21.2604 30.4042 22.1129 29.5312 22.781C28.8692 23.2718 28.3305 23.9099 27.9576 24.6448C27.5848 25.3798 27.388 26.1913 27.3828 27.0154C27.3808 27.309 27.2632 27.59 27.0556 27.7976C26.848 28.0052 26.567 28.1227 26.2734 28.1248H25.7812V22.656C25.7816 22.4735 25.718 22.2966 25.6016 22.156L22.7578 18.7498H27.0156L25.6172 20.1482C25.4892 20.2977 25.4223 20.4899 25.4299 20.6866C25.4375 20.8832 25.519 21.0697 25.6582 21.2088C25.7973 21.348 25.9838 21.4295 26.1804 21.4371C26.3771 21.4447 26.5693 21.3778 26.7188 21.2498L29.4531 18.5154C29.5602 18.4062 29.6329 18.268 29.6621 18.1179C29.6914 17.9678 29.6759 17.8124 29.6177 17.671C29.5595 17.5296 29.461 17.4084 29.3345 17.3224C29.2081 17.2364 29.0592 17.1894 28.9062 17.1873H21.0938C20.9452 17.1871 20.7996 17.2292 20.6741 17.3088C20.5486 17.3883 20.4484 17.502 20.3853 17.6365C20.3221 17.771 20.2987 17.9207 20.3176 18.0681C20.3365 18.2155 20.3971 18.3544 20.4922 18.4685L24.2188 22.9373V28.1248H23.7266C23.5792 28.1248 23.4333 28.0956 23.2972 28.039C23.1612 27.9824 23.0377 27.8994 22.9338 27.7948C22.83 27.6902 22.7478 27.5662 22.6922 27.4297C22.6365 27.2933 22.6083 27.1472 22.6094 26.9998C22.6003 26.1767 22.401 25.3669 22.0269 24.6337C21.6528 23.9004 21.1142 23.2637 20.4531 22.7732C19.3913 21.9647 18.5669 20.8851 18.0665 19.6478C17.566 18.4106 17.4082 17.0613 17.6094 15.742ZM5.46875 17.2654C5.46972 17.1495 5.49391 17.035 5.5399 16.9286C5.58588 16.8222 5.65273 16.7261 5.73649 16.646C5.82025 16.5659 5.91921 16.5034 6.02754 16.4622C6.13587 16.4209 6.25136 16.4019 6.36719 16.406C9.60678 16.4961 12.8324 16.8672 16.0078 17.5154C16.0975 18.7864 16.4583 20.0234 17.0661 21.1433C17.6739 22.2631 18.5144 23.2398 19.5312 24.0076C20.0063 24.3525 20.3947 24.803 20.6658 25.3236C20.937 25.8442 21.0835 26.4207 21.0938 27.0076C21.0936 27.7103 21.3695 28.3848 21.862 28.886C22.3544 29.3873 23.024 29.675 23.7266 29.6873H26.2734C26.627 29.6863 26.9769 29.6155 27.3031 29.479C27.6293 29.3425 27.9253 29.143 28.1743 28.8919C28.4232 28.6407 28.6201 28.343 28.7538 28.0156C28.8874 27.6883 28.9552 27.3378 28.9531 26.9842C28.9658 26.4021 29.1135 25.8309 29.3847 25.3157C29.6558 24.8005 30.043 24.3554 30.5156 24.0154C31.5276 23.2431 32.3632 22.2638 32.9668 21.143C33.5703 20.0221 33.9279 18.7854 34.0156 17.5154L35.3125 17.2576C38.0611 16.7688 40.8422 16.4841 43.6328 16.406C43.75 16.4 43.8672 16.4192 43.9764 16.4623C44.0855 16.5055 44.1842 16.5715 44.2656 16.656C44.348 16.7362 44.4134 16.8322 44.4577 16.9383C44.502 17.0443 44.5243 17.1583 44.5234 17.2732V42.1092C44.5237 42.3305 44.4385 42.5433 44.2857 42.7034C44.1329 42.8635 43.9242 42.9585 43.7031 42.9685C37.5712 43.0505 31.5028 44.2224 25.7812 46.4295V32.8123H26.5625C26.7697 32.8123 26.9684 32.73 27.1149 32.5835C27.2614 32.437 27.3438 32.2382 27.3438 32.031C27.3438 31.8238 27.2614 31.6251 27.1149 31.4786C26.9684 31.3321 26.7697 31.2498 26.5625 31.2498H23.4375C23.2303 31.2498 23.0316 31.3321 22.8851 31.4786C22.7386 31.6251 22.6562 31.8238 22.6562 32.031C22.6562 32.2382 22.7386 32.437 22.8851 32.5835C23.0316 32.73 23.2303 32.8123 23.4375 32.8123H24.2188V46.4373C18.4986 44.2244 12.4296 43.0497 6.29688 42.9685C6.07441 42.9604 5.86377 42.8663 5.70931 42.706C5.55484 42.5458 5.4686 42.3318 5.46875 42.1092V17.2654ZM2.34375 44.531V22.656C2.34511 22.1725 2.496 21.7012 2.77573 21.3068C3.05547 20.9123 3.45035 20.6141 3.90625 20.4529V42.1092C3.90981 42.737 4.1555 43.3393 4.59212 43.7904C5.02874 44.2416 5.62261 44.5069 6.25 44.531C11.1548 44.6474 16.0205 45.436 20.7109 46.8748H4.6875C4.0659 46.8748 3.46976 46.6279 3.03022 46.1883C2.59068 45.7488 2.34375 45.1526 2.34375 44.531ZM47.6562 44.531C47.6562 45.1526 47.4093 45.7488 46.9698 46.1883C46.5302 46.6279 45.9341 46.8748 45.3125 46.8748H29.2812C33.9742 45.4353 38.8426 44.6467 43.75 44.531C44.3774 44.5069 44.9713 44.2416 45.4079 43.7904C45.8445 43.3393 46.0902 42.737 46.0938 42.1092V20.4295C46.5534 20.592 46.951 20.8938 47.2311 21.2929C47.5111 21.692 47.6598 22.1685 47.6562 22.656V44.531Z" fill="#005BFF"/>
<path d="M8.53864 21.0938C9.56989 21.1641 10.6089 21.2578 11.6246 21.3828H11.7183C11.9255 21.3952 12.1292 21.3249 12.2845 21.1871C12.4398 21.0494 12.534 20.8556 12.5464 20.6484C12.5589 20.4412 12.4885 20.2376 12.3508 20.0823C12.213 19.927 12.0193 19.8327 11.8121 19.8203C10.773 19.6953 9.7027 19.5938 8.64801 19.5234C8.44081 19.51 8.23675 19.5794 8.08071 19.7164C7.92468 19.8533 7.82945 20.0467 7.81598 20.2539C7.80251 20.4611 7.87191 20.6652 8.0089 20.8212C8.14589 20.9772 8.33925 21.0725 8.54645 21.0859L8.53864 21.0938ZM8.53864 24.3203C10.4445 24.4446 12.3428 24.6663 14.2261 24.9844H14.3589C14.4615 24.9931 14.5648 24.9815 14.663 24.9503C14.7611 24.9191 14.8521 24.8689 14.9308 24.8025C15.0095 24.7361 15.0744 24.6549 15.1217 24.5634C15.169 24.472 15.1979 24.3721 15.2066 24.2695C15.2153 24.1669 15.2037 24.0636 15.1725 23.9655C15.1413 23.8674 15.0911 23.7764 15.0247 23.6977C14.9583 23.6189 14.8771 23.5541 14.7857 23.5068C14.6942 23.4594 14.5943 23.4306 14.4917 23.4219C12.5568 23.0936 10.6063 22.8641 8.64801 22.7344C8.44081 22.7209 8.23675 22.7903 8.08071 22.9273C7.92468 23.0643 7.82945 23.2576 7.81598 23.4648C7.80251 23.672 7.87191 23.8761 8.0089 24.0321C8.14589 24.1882 8.33925 24.2834 8.54645 24.2969L8.53864 24.3203ZM7.81207 28.9609C7.79921 29.167 7.86841 29.3697 8.00454 29.5249C8.14068 29.68 8.33269 29.775 8.53864 29.7891C12.7172 30.0451 16.8505 30.7978 20.8511 32.0312C21.049 32.0934 21.2635 32.0744 21.4473 31.9785C21.6312 31.8825 21.7694 31.7174 21.8316 31.5195C21.8937 31.3217 21.8748 31.1072 21.7788 30.9233C21.6828 30.7394 21.5177 30.6012 21.3199 30.5391C17.2012 29.2576 12.9448 28.4708 8.6402 28.1953C8.53503 28.189 8.42967 28.204 8.33045 28.2394C8.23123 28.2748 8.1402 28.33 8.06284 28.4015C7.98548 28.473 7.92338 28.5595 7.88029 28.6556C7.83719 28.7517 7.81399 28.8556 7.81207 28.9609ZM21.3277 34.375C17.209 33.0936 12.9526 32.3068 8.64801 32.0312C8.54542 32.0246 8.44251 32.0382 8.34518 32.0713C8.24784 32.1044 8.15797 32.1563 8.08071 32.2242C7.92468 32.3612 7.82945 32.5545 7.81598 32.7617C7.80251 32.9689 7.87191 33.173 8.0089 33.329C8.14589 33.4851 8.33925 33.5803 8.54645 33.5938C12.7254 33.8524 16.8586 34.6077 20.8589 35.8438C21.0422 35.8706 21.229 35.8316 21.3861 35.7335C21.5432 35.6354 21.6603 35.4847 21.7166 35.3083C21.7729 35.1319 21.7647 34.9412 21.6935 34.7702C21.6223 34.5993 21.4926 34.4592 21.3277 34.375ZM21.3277 38.2812C17.2091 36.9998 12.9526 36.213 8.64801 35.9375C8.44081 35.924 8.23675 35.9934 8.08071 36.1304C7.92468 36.2674 7.82945 36.4608 7.81598 36.668C7.80251 36.8752 7.87191 37.0792 8.0089 37.2353C8.14589 37.3913 8.33925 37.4865 8.54645 37.5C12.7265 37.7896 16.8572 38.5764 20.8511 39.8438C21.0583 39.9069 21.2821 39.8852 21.4733 39.7834C21.6645 39.6816 21.8075 39.508 21.8706 39.3008C21.9338 39.0936 21.9121 38.8698 21.8103 38.6786C21.7085 38.4874 21.5349 38.3444 21.3277 38.2812ZM28.9058 32.0781C28.9835 32.0899 29.0625 32.0899 29.1402 32.0781C33.1405 30.842 37.2737 30.0867 41.4527 29.8281C41.6599 29.8147 41.8532 29.7194 41.9902 29.5634C42.1272 29.4074 42.1966 29.2033 42.1831 28.9961C42.1697 28.7889 42.0745 28.5955 41.9184 28.4585C41.7624 28.3215 41.5583 28.2522 41.3511 28.2656C37.0465 28.5411 32.7901 29.3279 28.6714 30.6094C28.5688 30.6248 28.4703 30.6602 28.3814 30.7137C28.2925 30.7672 28.215 30.8376 28.1533 30.9211C28.0288 31.0896 27.9763 31.3006 28.0074 31.5078C28.0384 31.715 28.1506 31.9014 28.3191 32.0259C28.4875 32.1505 28.6986 32.203 28.9058 32.1719V32.0781ZM28.9058 35.8828C28.9835 35.8946 29.0625 35.8946 29.1402 35.8828C33.1389 34.6335 37.2722 33.8651 41.4527 33.5938C41.5553 33.5871 41.6556 33.5603 41.7478 33.5148C41.84 33.4694 41.9224 33.4063 41.9902 33.329C42.0581 33.2518 42.11 33.1619 42.1431 33.0646C42.1762 32.9672 42.1898 32.8643 42.1831 32.7617C42.1765 32.6591 42.1497 32.5588 42.1042 32.4666C42.0588 32.3744 41.9957 32.292 41.9184 32.2242C41.8412 32.1563 41.7513 32.1044 41.654 32.0713C41.5566 32.0382 41.4537 32.0246 41.3511 32.0312C37.0466 32.3068 32.7901 33.0936 28.6714 34.375C28.4642 34.4061 28.2779 34.5182 28.1533 34.6867C28.0288 34.8552 27.9763 35.0662 28.0074 35.2734C28.0384 35.4806 28.1506 35.667 28.3191 35.7915C28.4875 35.9161 28.6986 35.9686 28.9058 35.9375V35.8828ZM28.9058 39.8438C28.9835 39.8555 29.0625 39.8555 29.1402 39.8438C33.1405 38.6076 37.2737 37.8523 41.4527 37.5938C41.6599 37.5803 41.8532 37.4851 41.9902 37.329C42.1272 37.173 42.1966 36.9689 42.1831 36.7617C42.1697 36.5545 42.0745 36.3612 41.9184 36.2242C41.7624 36.0872 41.5583 36.0178 41.3511 36.0312C37.0503 36.2763 32.7939 37.0316 28.6714 38.2812C28.4642 38.3123 28.2779 38.4244 28.1533 38.5929C28.0288 38.7614 27.9763 38.9725 28.0074 39.1797C28.0384 39.3869 28.1506 39.5733 28.3191 39.6978C28.4875 39.8223 28.6986 39.8748 28.9058 39.8438ZM24.9996 5.46875C25.2068 5.46875 25.4055 5.38644 25.552 5.23993C25.6985 5.09341 25.7808 4.8947 25.7808 4.6875V1.5625C25.7808 1.3553 25.6985 1.15659 25.552 1.01007C25.4055 0.86356 25.2068 0.78125 24.9996 0.78125C24.7924 0.78125 24.5936 0.86356 24.4471 1.01007C24.3006 1.15659 24.2183 1.3553 24.2183 1.5625V4.6875C24.2183 4.8947 24.3006 5.09341 24.4471 5.23993C24.5936 5.38644 24.7924 5.46875 24.9996 5.46875ZM30.523 7.75781C30.6258 7.75841 30.7277 7.7387 30.8229 7.69982C30.9181 7.66094 31.0047 7.60366 31.0777 7.53125L33.2886 5.32031C33.4166 5.17086 33.4835 4.97861 33.4759 4.78199C33.4683 4.58537 33.3868 4.39885 33.2477 4.25972C33.1085 4.12058 32.922 4.03907 32.7254 4.03148C32.5288 4.02388 32.3365 4.09076 32.1871 4.21875L29.9683 6.42188C29.8581 6.53115 29.783 6.67076 29.7525 6.82291C29.7219 6.97505 29.7374 7.13284 29.7969 7.27616C29.8564 7.41947 29.9573 7.54182 30.0866 7.6276C30.2159 7.71339 30.3678 7.75872 30.523 7.75781ZM18.9214 7.53125C19.0709 7.65924 19.2631 7.72612 19.4598 7.71852C19.6564 7.71093 19.8429 7.62942 19.982 7.49028C20.1212 7.35115 20.2027 7.16463 20.2103 6.96801C20.2179 6.77139 20.151 6.57914 20.023 6.42969L17.8199 4.21094C17.6704 4.08295 17.4782 4.01607 17.2815 4.02366C17.0849 4.03126 16.8984 4.11277 16.7593 4.2519C16.6201 4.39104 16.5386 4.57756 16.531 4.77418C16.5234 4.9708 16.5903 5.16305 16.7183 5.3125L18.9214 7.53125Z" fill="#005BFF"/>
</svg>
