<svg width="50" height="50" viewBox="0 0 50 50" fill="none" xmlns="http://www.w3.org/2000/svg">
<g clip-path="url(#clip0_6001_92)">
<mask id="mask0_6001_92" style="mask-type:luminance" maskUnits="userSpaceOnUse" x="0" y="0" width="50" height="50">
<path d="M50 0H0V50H50V0Z" fill="white"/>
</mask>
<g mask="url(#mask0_6001_92)">
<path d="M11.4231 9.2257C11.6174 9.2257 11.8037 9.14853 11.941 9.01118C12.0784 8.87382 12.1556 8.68753 12.1556 8.49328C12.1556 8.29903 12.0784 8.11273 11.941 7.97538C11.8037 7.83802 11.6174 7.76086 11.4231 7.76086C11.2289 7.76086 11.0426 7.83802 10.9052 7.97538C10.7679 8.11273 10.6907 8.29903 10.6907 8.49328C10.6907 8.68753 10.7679 8.87382 10.9052 9.01118C11.0426 9.14853 11.2289 9.2257 11.4231 9.2257ZM5.56377 9.2257C5.75802 9.2257 5.94431 9.14853 6.08167 9.01118C6.21903 8.87382 6.29619 8.68753 6.29619 8.49328C6.29619 8.29903 6.21903 8.11273 6.08167 7.97538C5.94431 7.83802 5.75802 7.76086 5.56377 7.76086C5.36952 7.76086 5.18323 7.83802 5.04587 7.97538C4.90851 8.11273 4.83135 8.29903 4.83135 8.49328C4.83135 8.68753 4.90851 8.87382 5.04587 9.01118C5.18323 9.14853 5.36952 9.2257 5.56377 9.2257ZM8.49346 9.2257C8.68771 9.2257 8.874 9.14853 9.01136 9.01118C9.14871 8.87382 9.22588 8.68753 9.22588 8.49328C9.22588 8.29903 9.14871 8.11273 9.01136 7.97538C8.874 7.83802 8.68771 7.76086 8.49346 7.76086C8.29921 7.76086 8.11291 7.83802 7.97556 7.97538C7.8382 8.11273 7.76103 8.29903 7.76103 8.49328C7.76103 8.68753 7.8382 8.87382 7.97556 9.01118C8.11291 9.14853 8.29921 9.2257 8.49346 9.2257ZM8.33281 16.9848L8.34629 16.9849L14.9683 16.9865C15.4258 16.9865 15.8146 16.6902 15.9354 16.2489C16.0562 15.8075 15.8728 15.3545 15.479 15.1216L14.4719 14.5257C15.2754 13.7298 15.9118 12.7813 16.3436 11.736C16.7755 10.6907 16.9941 9.56965 16.9866 8.43869C16.9576 3.85197 13.2035 0.0669111 8.61816 0.000895433C3.8667 -0.0673663 0 3.77609 0 8.49347C0 13.0172 3.72734 16.8868 8.33281 16.9848ZM3.55957 3.48761C4.91016 2.15636 6.69531 1.43908 8.59717 1.46554C12.3914 1.52013 15.4978 4.65236 15.5218 8.44787C15.5284 9.45933 15.3166 10.4603 14.9008 11.3824C14.485 12.3044 13.875 13.1258 13.1125 13.7904C12.9851 13.9019 12.8858 14.0419 12.8229 14.199C12.7599 14.3562 12.7351 14.526 12.7503 14.6945C12.766 14.8629 12.8213 15.0252 12.9117 15.1681C13.0022 15.3111 13.1251 15.4305 13.2706 15.5168L13.2779 15.5211L8.35352 15.5199C4.54668 15.4469 1.46484 12.3108 1.46484 8.49347C1.46484 6.59689 2.20879 4.81916 3.55957 3.48761ZM49.2676 48.5352H48.5352V37.6279C48.5352 34.7703 46.8466 32.1754 44.2251 31.0134L40.3651 29.359C41.3044 29.0626 42.1529 28.5341 42.8434 27.801C43.8851 26.695 44.4824 25.1944 44.4824 23.6837C44.4824 22.2956 43.9975 20.9855 43.0798 19.8945C41.9309 18.5287 41.3006 16.8015 41.2998 15.0167V11.507C41.2998 8.43293 40.1026 5.54347 37.929 3.37091C35.7554 1.19709 32.8656 1.65265e-05 29.792 1.65265e-05C23.4471 1.65265e-05 18.2852 5.16193 18.2852 11.5069V14.9024C18.2855 16.7469 17.5606 18.5075 16.3827 19.9268C14.9002 21.7129 14.5922 24.1278 15.579 26.2291C16.3114 27.7889 17.6325 28.9095 19.2141 29.3838L15.3811 31.0506C12.6919 32.1822 10.9542 34.7986 10.9542 37.7159V46.338C10.9542 46.7425 11.282 47.0704 11.6866 47.0704C12.0912 47.0704 12.419 46.7425 12.419 46.338V37.7159C12.419 35.3896 13.8047 33.3031 15.9572 32.3974L20.7617 30.3081V34.7168H18.5544C18.2463 34.717 17.9417 34.7819 17.6603 34.9073C17.3789 35.0326 17.127 35.2157 16.9208 35.4445C16.7149 35.6737 16.5595 35.9435 16.4645 36.2365C16.3695 36.5296 16.3371 36.8393 16.3694 37.1456L17.5768 48.5352H0.732422C0.327832 48.5352 0 48.8631 0 49.2676C0 49.6721 0.327832 50 0.732422 50H49.2676C49.6722 50 50 49.6721 50 49.2676C50 48.8631 49.6722 48.5352 49.2676 48.5352ZM41.9591 20.8377C42.6516 21.661 43.0176 22.645 43.0176 23.6836C43.0176 24.8249 42.5654 25.9595 41.7771 26.7966C40.9423 27.6828 39.7955 28.1709 38.5479 28.1709H37.5935L36.3396 27.6335C35.8067 27.4052 35.3422 27.0421 34.992 26.58C34.6418 26.1179 34.4178 25.5726 34.3421 24.9978C36.602 23.781 38.1417 21.3929 38.1417 18.6514V13.1452C38.3554 13.16 38.5696 13.1675 38.7838 13.1677C39.136 13.1677 39.4869 13.1477 39.8351 13.1082V15.0166C39.8359 17.1465 40.5881 19.2078 41.9591 20.8377ZM29.97 32.4003C27.3549 32.4468 24.7467 32.1149 22.2266 31.415V29.6711L22.4384 29.579L22.4435 29.5769L23.7501 29.0087C24.4576 28.7013 25.0808 28.2281 25.5671 27.6293C26.0533 27.0304 26.3884 26.3234 26.544 25.5678C27.1964 25.7579 27.8724 25.8545 28.5519 25.8546H30.9385C31.6205 25.8545 32.299 25.7572 32.9536 25.5656C33.1144 26.318 33.4534 27.0207 33.9422 27.6148C34.431 28.209 35.0552 28.6771 35.7624 28.9799L37.1569 29.5776L37.1596 29.5786L37.2629 29.6229V31.271C34.8946 31.9771 32.441 32.3571 29.97 32.4003ZM37.2627 32.796V34.7169H22.2266V32.9318C24.7613 33.597 27.3754 33.911 29.9956 33.865C32.4538 33.822 34.8962 33.4627 37.2627 32.796ZM39.835 11.6313C37.8175 11.9038 35.5434 11.3634 33.9766 10.1494C33.8229 10.032 33.629 9.98019 33.4373 10.0052C33.2455 10.0302 33.0714 10.13 32.953 10.2829C32.8345 10.4357 32.7814 10.6292 32.805 10.8212C32.8287 11.0131 32.9273 11.1879 33.0794 11.3073C34.1037 12.1009 35.3392 12.6599 36.6769 12.9417V16.9291C36.3249 17.7313 35.9331 18.3984 35.0498 19.1271C34.6792 19.4326 34.2709 19.6892 33.835 19.8908C33.479 19.1962 32.7561 18.7194 31.9234 18.7194H30.207C29.0231 18.7194 28.0601 19.6826 28.0601 20.8664C28.0601 22.0502 29.0231 23.0134 30.207 23.0134H31.9234C32.9197 23.0134 33.7596 22.3312 34.0007 21.4095C34.9805 21.0361 36.578 19.7043 36.5784 19.7038C36.0824 22.3666 33.743 24.3894 30.9386 24.3894H28.5518C25.3877 24.3894 22.8135 21.8153 22.8135 18.6511V12.9896C25.3011 12.5996 27.6512 11.7578 29.8064 10.483C33.0881 8.54191 35.1931 6.00539 36.4634 4.00138C38.6369 5.93722 39.8733 8.71252 39.835 11.6313ZM32.6054 20.8685C32.6043 21.2438 32.2988 21.5487 31.9233 21.5487H30.2069C29.8308 21.5487 29.5248 21.2427 29.5248 20.8666C29.5248 20.4905 29.8309 20.1845 30.2069 20.1845H31.9233C32.2987 20.1845 32.6041 20.4893 32.6054 20.8644V20.8685ZM19.75 11.5069C19.75 5.96965 24.2548 1.46486 29.792 1.46486C31.7778 1.46486 33.6755 2.0381 35.2971 3.10529C34.128 4.97922 32.1604 7.38898 29.0606 9.22258C26.9342 10.4804 24.6017 11.2834 22.1276 11.6094H19.7499L19.75 11.5069ZM16.9048 25.6065C16.1621 24.0246 16.3939 22.2068 17.509 20.8634C18.9081 19.1778 19.7516 17.0949 19.75 14.9024V13.0742H21.3486V18.6514C21.3486 21.3945 22.8903 23.7837 25.1522 24.9998C25.0823 25.5787 24.8622 26.1293 24.5137 26.5968C24.1653 27.0644 23.7007 27.4327 23.1659 27.6653L22.003 28.1709H20.9414C19.1943 28.1709 17.6477 27.1883 16.9048 25.6065ZM42.4016 36.9913L41.1778 48.5352H19.0498L17.8261 36.9913C17.8147 36.8892 17.8252 36.7858 17.8569 36.688C17.8886 36.5903 17.9407 36.5004 18.0099 36.4243C18.0782 36.3476 18.1621 36.2862 18.256 36.2444C18.3499 36.2026 18.4516 36.1812 18.5544 36.1818H41.6732C41.8836 36.1818 42.077 36.2679 42.2178 36.4243C42.2869 36.5004 42.3391 36.5903 42.3708 36.688C42.4025 36.7858 42.413 36.8892 42.4016 36.9913ZM47.0703 48.5352H42.6509L43.8582 37.1458C43.8905 36.8395 43.8581 36.5297 43.7631 36.2367C43.6681 35.9437 43.5127 35.6738 43.3068 35.4446C43.1007 35.2158 42.8487 35.0327 42.5673 34.9073C42.2859 34.782 41.9813 34.7171 41.6732 34.7169H38.7275V30.2508L43.6397 32.3562C45.7237 33.28 47.0703 35.3492 47.0703 37.6279V48.5352ZM30.1138 39.5752C28.5791 39.5752 27.3306 40.8237 27.3306 42.3584C27.3306 43.8931 28.5791 45.1416 30.1138 45.1416C31.6484 45.1416 32.897 43.8931 32.897 42.3584C32.897 40.8237 31.6484 39.5752 30.1138 39.5752ZM30.1138 43.6768C29.3868 43.6768 28.7954 43.0854 28.7954 42.3584C28.7954 41.6315 29.3868 41.0401 30.1138 41.0401C30.8407 41.0401 31.4321 41.6315 31.4321 42.3584C31.4321 43.0854 30.8408 43.6768 30.1138 43.6768Z" fill="#005BFF"/>
</g>
</g>
<defs>
<clipPath id="clip0_6001_92">
<rect width="50" height="50" fill="white"/>
</clipPath>
</defs>
</svg>
