<svg width="150" height="6" viewBox="0 0 150 6" fill="none" xmlns="http://www.w3.org/2000/svg">
<path d="M138.106 0.620155C134.853 0.503876 131.543 0.387597 128.233 0.271318C127.168 0.232558 126.046 0.232558 124.98 0.193798C122.624 0.155039 120.268 0.116279 117.912 0.0775194C116.622 0.0387597 115.275 0.0387597 113.985 0C113.593 0 113.2 0 112.863 0C112.022 0 111.181 0 110.283 0C106.412 0 102.542 0 98.6713 0C97.7738 0 96.8202 0 95.9227 0.0387597C93.6228 0.0775194 91.3789 0.0775194 89.079 0.116279C86.4987 0.155039 83.9183 0.155039 81.3379 0.193798C77.1869 0.271318 72.9797 0.348837 68.8287 0.426357C66.4166 0.465116 64.0045 0.503876 61.5924 0.542636C57.4414 0.658915 53.2904 0.775194 49.1393 0.891473C46.8394 0.968992 44.5956 1.00775 42.2957 1.08527C37.9764 1.27907 33.6571 1.43411 29.3377 1.58915C27.0378 1.66667 24.7379 1.74419 22.438 1.86047C18.1748 2.09302 13.8555 2.36434 9.59227 2.63566C8.69474 2.67442 7.74113 2.75194 6.78751 2.7907C4.99247 2.90698 3.14133 3.10078 1.29019 3.25581C1.178 3.25581 1.06581 3.29457 0.953617 3.29457C0.729237 3.29457 0.560951 3.37209 0.392666 3.48837C0.11219 3.68217 0 3.91473 0 4.14729C0 4.37985 0.11219 4.6124 0.392666 4.76744C0.617046 4.92248 1.00971 5.03876 1.29019 5.03876C3.53399 4.88372 5.7217 4.68992 7.96551 4.53488C10.041 4.4186 12.1165 4.30233 14.1921 4.18605C16.4359 4.06977 18.6797 3.91473 20.9796 3.79845C21.8771 3.75969 22.7746 3.68217 23.7282 3.64341C27.2622 3.52713 30.7401 3.37209 34.2741 3.25581C36.4618 3.17829 38.6495 3.10078 40.8372 3.02326C41.7348 2.9845 42.6323 2.94574 43.5298 2.90698C47.0077 2.7907 50.4856 2.71318 53.9635 2.5969C56.0951 2.55814 58.1706 2.48062 60.3022 2.44186C61.0315 2.44186 61.7046 2.4031 62.4339 2.4031C66.1922 2.32558 69.9506 2.28682 73.709 2.2093C75.7845 2.17054 77.9161 2.13178 79.9916 2.09302C80.7209 2.09302 81.5062 2.05426 82.2354 2.05426C86.106 2.0155 89.9766 2.0155 93.9032 1.97674C96.3153 1.97674 98.7274 1.93798 101.139 1.93798C105.234 1.93798 109.385 1.93798 113.48 1.97674C114.266 1.97674 115.107 2.0155 115.893 2.0155C118.192 2.05426 120.436 2.09302 122.736 2.17054C124.419 2.2093 126.158 2.24806 127.841 2.28682C129.075 2.32558 130.253 2.36434 131.487 2.4031C135.021 2.51938 138.611 2.67442 142.145 2.82946C143.043 2.86822 143.94 2.90698 144.838 2.94574C145.791 2.9845 146.801 3.02326 147.755 3.10078C147.923 3.10078 148.035 3.13954 148.203 3.17829C148.596 3.21705 148.933 3.21705 149.269 3.06202C149.606 2.94574 149.83 2.71318 149.942 2.48062C150.167 1.97674 149.718 1.43411 148.933 1.27907C148.259 1.16279 147.586 1.12403 146.969 1.04651C146.52 1.00775 146.072 0.968992 145.623 0.968992C144.725 0.891473 143.828 0.891473 142.986 0.813953C141.416 0.775194 139.733 0.697674 138.106 0.620155Z" fill="#FFD25D"/>
</svg>
