<svg width="46" height="45" viewBox="0 0 46 45" fill="none" xmlns="http://www.w3.org/2000/svg">
<path d="M35.0841 15.818C34.525 15.2589 33.9239 14.7369 33.2926 14.2595C33.4216 13.8236 33.339 14.0807 33.3645 7.66742L36.7386 6.51105V7.61197H36.5917C35.9777 7.61197 35.4531 8.07084 35.3713 8.67922L34.8893 12.2659C34.842 12.6179 34.9489 12.9731 35.1828 13.2404C35.4167 13.5078 35.7545 13.661 36.1096 13.661H38.6862C39.4314 13.661 40.0057 13.0036 39.9066 12.2659L39.4244 8.67913C39.3426 8.07076 38.818 7.61197 38.2041 7.61197H38.0572V5.46823C38.0572 5.11482 37.8325 4.80026 37.4981 4.68573L24.6075 0.267561C23.5665 -0.089187 22.4199 -0.089187 21.3789 0.267561L8.48832 4.68565C7.74547 4.94 7.74433 5.99601 8.48823 6.25072L12.6218 7.66742V9.19593C12.6218 9.56006 12.917 9.85529 13.2812 9.85529C13.6453 9.85529 13.9405 9.56015 13.9405 9.19593V8.11945L21.379 10.6689C22.42 11.0256 23.5666 11.0257 24.6075 10.6689L32.046 8.11945V13.7692C32.046 13.9434 31.9342 14.0954 31.7678 14.1472C26.0274 15.9363 19.9592 15.9364 14.2186 14.1472C14.0523 14.0953 13.9405 13.9434 13.9405 13.7692V12.2957C13.9405 11.9316 13.6454 11.6364 13.2812 11.6364C12.917 11.6364 12.6218 11.9315 12.6218 12.2957V13.7692C12.6218 13.939 12.6476 14.1034 12.6937 14.2595C12.0625 14.7369 11.4613 15.2589 10.9022 15.818C0.217285 26.503 7.78757 44.9999 22.9932 44.9999C27.4826 44.9999 31.8296 43.2542 35.0841 39.9997C36.3116 38.7722 37.3395 37.3775 38.1389 35.8546C38.3081 35.5321 38.184 35.1336 37.8616 34.9643C37.5392 34.7951 37.1406 34.9191 36.9714 35.2416C36.3351 36.4536 35.5411 37.5773 34.6076 38.5908L28.3488 32.3319C31.2655 29.6818 35.0696 28.5728 38.7381 28.9765C38.6586 30.1455 38.4504 31.3161 38.104 32.4679C37.9992 32.8166 38.1968 33.1843 38.5455 33.2892C38.8965 33.3943 39.2624 33.1946 39.3668 32.8477C41.1846 26.8029 39.5435 20.2774 35.0841 15.818ZM38.1278 8.93059L38.5863 12.3425H36.2095L36.6681 8.93059H38.1278ZM24.18 9.42146C23.4146 9.68381 22.5717 9.68364 21.8064 9.42146L10.272 5.46823L21.8064 1.5149C22.5717 1.25273 23.4147 1.25273 24.18 1.5149L35.7144 5.46823L24.18 9.42146ZM22.976 16.8076C22.9817 16.8076 22.9874 16.8078 22.9931 16.8078C26.0773 16.8078 29.1616 16.3405 32.16 15.4059C32.2646 15.3733 32.3635 15.3307 32.4573 15.2809C32.8791 15.5979 33.2867 15.9363 33.6755 16.294L22.9932 26.9764L19.5029 23.4861C21.1705 21.6597 22.4107 19.3796 22.976 16.8076ZM13.529 15.2809C13.6229 15.3308 13.7218 15.3734 13.8264 15.406C16.3834 16.203 19.0029 16.6589 21.6314 16.7761C21.1112 18.9367 20.0728 20.8993 18.5701 22.5532L12.3109 16.294C12.6997 15.9363 13.1072 15.5979 13.529 15.2809ZM11.379 17.2271L17.6376 23.4857C14.7545 26.1052 10.9657 27.2481 7.25662 26.8421C7.48988 23.3686 8.86432 19.9587 11.379 17.2271ZM7.22322 28.1653C11.2503 28.5747 15.3847 27.3273 18.5703 24.4185L22.0607 27.9088L11.379 38.5906C8.66894 35.6469 7.28369 31.9152 7.22322 28.1653ZM22.7371 43.6789C18.9871 43.6186 15.2553 42.2333 12.3115 39.523L22.9932 28.8413L26.4835 32.3316C23.6572 35.4271 22.3149 39.5247 22.7371 43.6789ZM33.675 39.5231C30.9435 42.0378 27.5336 43.4123 24.0601 43.6456C23.6546 39.9383 24.7949 36.1498 27.4164 33.2645L33.675 39.5231ZM27.416 31.3991L23.9257 27.9088L34.6071 17.2274C37.262 20.1121 38.7126 23.8309 38.7738 27.6539C34.7259 27.24 30.5931 28.4983 27.416 31.3991Z" fill="white"/>
</svg>
