<svg width="46" height="45" viewBox="0 0 46 45" fill="none" xmlns="http://www.w3.org/2000/svg">
<g clip-path="url(#clip0_4349_605)">
<path d="M43.7322 38.3827V37.1192C43.7322 36.5058 43.3202 35.9614 42.7303 35.7952C42.6781 35.7805 42.6208 35.7647 42.5612 35.7484V34.0837C42.5612 33.469 42.1475 32.9241 41.5552 32.7584C37.635 31.6623 32.798 31.3131 28.7059 32.395V29.0754C28.7059 28.7113 28.4108 28.4162 28.0468 28.4162C27.6827 28.4162 27.3876 28.7113 27.3876 29.0754V32.8011C25.7643 33.3757 24.3075 34.1824 23.0257 35.2177C21.7913 34.2208 20.3951 33.4356 18.844 32.8657V22.4588H27.3877V26.0036C27.3877 26.3677 27.6828 26.6628 28.0469 26.6628C28.4109 26.6628 28.706 26.3677 28.706 26.0036V22.4165C29.4113 22.2531 29.939 21.621 29.939 20.8668V18.9911C29.939 18.2369 29.4113 17.6049 28.706 17.4415V16.9021C28.706 15.8283 29.7849 14.5816 30.2627 11.9533H42.4425C44.1285 11.9533 45.5002 10.5817 45.5002 8.8957C45.5002 7.2097 44.1286 5.83799 42.4425 5.83799C41.0382 5.83799 31.6378 5.83799 30.4127 5.83799C30.2175 5.00479 29.4701 4.38182 28.5782 4.38182H27.794C27.5056 4.38182 27.2322 4.44686 26.9876 4.56305C26.6647 3.9864 26.0476 3.59572 25.341 3.59572H24.5567C24.2383 3.59572 23.9381 3.675 23.6748 3.81492C23.3366 3.30665 22.7586 2.97091 22.1037 2.97091H21.3194C20.9593 2.97091 20.6225 3.07233 20.3359 3.2482C19.99 2.81842 19.4599 2.54297 18.8664 2.54297H18.0822C17.0423 2.54297 16.1965 3.38892 16.1965 4.42857L16.1962 5.83799H6.92542C6.17431 5.83799 5.44534 5.99241 4.75892 6.29704L1.14793 7.89929C0.754355 8.07393 0.5 8.46504 0.5 8.89561C0.5 9.32619 0.754355 9.71731 1.14793 9.89194L4.759 11.4942C5.44552 11.7987 6.17439 11.9532 6.92551 11.9532H13.6495C13.8233 13.3409 14.533 14.653 15.5897 15.4851C16.3528 16.1768 17.2095 16.4732 17.4661 17.5528C16.9269 17.8081 16.5523 18.3559 16.5523 18.991V20.8668C16.5523 21.5252 16.9541 22.0917 17.5255 22.3336V32.443C13.4258 31.3122 8.51844 31.6334 4.49586 32.7584C3.90356 32.9239 3.48986 33.4689 3.48986 34.0836V35.7483C3.43019 35.7646 3.37288 35.7804 3.32067 35.7951C2.73084 35.9613 2.31881 36.5058 2.31881 37.1191V38.3827C1.3434 38.5398 0.595801 39.3872 0.595801 40.4063C0.595801 41.5368 1.51549 42.4565 2.64594 42.4565H43.405C44.5354 42.4565 45.4551 41.5368 45.4551 40.4063C45.4552 39.3873 44.7076 38.5399 43.7322 38.3827ZM41.4577 7.15635H42.4424C43.4014 7.15635 44.1817 7.93655 44.1817 8.8957C44.1817 9.85477 43.4015 10.635 42.4424 10.635H41.4577V7.15635ZM38.6592 7.15635H40.1394V10.635H38.6592V7.15635ZM30.4638 7.15635H37.3409V8.23652H30.4638V7.15635ZM30.4638 9.72135V9.55479H37.3409V10.6349H30.4298C30.4521 10.3316 30.4638 10.0269 30.4638 9.72135ZM5.68774 10.4402C5.33812 10.3268 5.40711 10.3319 2.15296 8.8957C5.40702 7.45948 5.33785 7.46467 5.68774 7.3512V10.4402ZM42.3729 37.064C42.3974 37.071 42.4138 37.0931 42.4138 37.1191V38.3563H25.3882C30.2338 35.4212 37.0259 35.5588 42.3729 37.064ZM23.6848 36.381C28.3579 32.4746 35.4697 32.4257 41.2001 34.0281C41.2257 34.0353 41.2428 34.0576 41.2428 34.0837V35.425C35.3555 34.1287 28.6103 34.3445 23.6848 37.9055V36.381ZM28.6204 20.8668C28.6204 21.0177 28.4977 21.1404 28.3468 21.1404H18.1442C17.9933 21.1404 17.8706 21.0177 17.8706 20.8668V18.991C17.8706 18.8401 17.9933 18.7174 18.1442 18.7174H28.3467C28.4976 18.7174 28.6203 18.8401 28.6203 18.991V20.8668H28.6204ZM14.266 10.6349H7.0061V9.55479H9.78002C10.1441 9.55479 10.4392 9.25966 10.4392 8.89561C10.4392 8.53157 10.1441 8.23643 9.78002 8.23643H7.0061V7.15626H16.1956L16.1954 8.23643H12.8518C12.4878 8.23643 12.1926 8.53157 12.1926 8.89561C12.1926 9.25966 12.4878 9.55479 12.8518 9.55479H16.1427C15.9738 10.1761 15.4063 10.6349 14.7323 10.6349H14.266ZM16.4053 14.4493C15.6542 13.8579 15.1371 12.9347 14.9774 11.9426C16.3965 11.8182 17.5133 10.6233 17.5136 9.17256C17.5138 8.1801 17.5143 5.41805 17.5145 4.42875C17.5145 4.11586 17.769 3.86142 18.0818 3.86142H18.8661C19.179 3.86142 19.4334 4.11595 19.4334 4.42884V4.85678C19.4334 5.22082 19.7285 5.51596 20.0926 5.51596C20.4566 5.51596 20.7518 5.22082 20.7518 4.85678C20.7518 4.54389 21.0063 4.28944 21.3191 4.28944H22.1033C22.4162 4.28944 22.6707 4.54397 22.6707 4.85678V5.4815C22.6707 5.84555 22.9658 6.14068 23.3299 6.14068C23.6939 6.14068 23.989 5.84555 23.989 5.4815C23.989 5.16861 24.2436 4.91417 24.5564 4.91417H25.3406C25.6534 4.91417 25.9079 5.1687 25.9079 5.4815V6.2676C25.9079 6.63164 26.2031 6.92678 26.5671 6.92678C26.9312 6.92678 27.2263 6.63164 27.2263 6.2676C27.2263 5.95471 27.4808 5.70026 27.7936 5.70026H28.5779C28.8907 5.70026 29.1452 5.9548 29.1452 6.26769V9.72152C29.1452 13.4749 27.3873 15.1331 27.3873 16.9022V17.3992H18.7808C18.4449 15.6326 17.0448 15.0643 16.4053 14.4493ZM4.80831 34.0836C4.80831 34.0575 4.82545 34.0351 4.85103 34.028C10.5883 32.4236 17.7317 32.5068 22.3664 36.3809V37.9054C17.4288 34.3357 10.6802 34.1341 4.8084 35.4253L4.80831 34.0836ZM3.63726 37.1192C3.63726 37.0932 3.65378 37.071 3.67812 37.0641C9.04095 35.5542 15.8265 35.4267 20.6629 38.3564H3.63726V37.1192ZM43.4051 41.1381H2.64603C2.24252 41.1381 1.91425 40.8098 1.91425 40.4063C1.91425 40.0029 2.24252 39.6746 2.64603 39.6746H43.4051C43.8085 39.6746 44.1368 40.0029 44.1368 40.4063C44.1368 40.8099 43.8085 41.1381 43.4051 41.1381Z" fill="white"/>
</g>
<defs>
<clipPath id="clip0_4349_605">
<rect width="45" height="45" fill="white" transform="translate(0.5)"/>
</clipPath>
</defs>
</svg>
