<svg width="40" height="41" viewBox="0 0 40 41" fill="none" xmlns="http://www.w3.org/2000/svg">
<path d="M39.6844 37.7428L33.9696 30.5993C33.8038 30.3879 33.5819 30.2275 33.3292 30.1366C33.0765 30.0456 32.8033 30.0277 32.5409 30.0849L19.9969 32.9138L7.45284 30.0564C7.19043 29.9991 6.9172 30.017 6.6645 30.108C6.4118 30.199 6.18986 30.3593 6.02414 30.5707L0.309324 37.7142C0.143496 37.9233 0.0395419 38.1746 0.00924067 38.4398C-0.0210606 38.7049 0.0235018 38.9732 0.137879 39.2143C0.249546 39.4628 0.42992 39.6742 0.657739 39.8235C0.885557 39.9729 1.15132 40.054 1.42371 40.0573H38.57C38.8393 40.0565 39.1029 39.9797 39.3304 39.8356C39.5579 39.6915 39.74 39.486 39.8558 39.2429C39.9702 39.0018 40.0148 38.7335 39.9845 38.4683C39.9542 38.2032 39.8502 37.9519 39.6844 37.7428Z" fill="#005BFF"/>
<path d="M0.737964 8.42578L19.8112 13.7977L39.4987 8.26862C39.6537 8.13606 39.7785 7.97184 39.8648 7.78702C39.951 7.60219 39.9967 7.40104 39.9987 7.1971C40.0123 6.88013 39.9199 6.56767 39.7363 6.30899C39.5526 6.0503 39.2881 5.86011 38.9844 5.76839L20.4112 0.0535804C20.1396 -0.0178601 19.8542 -0.0178601 19.5826 0.0535804L1.00942 5.76839C0.7457 5.85328 0.51235 6.013 0.33778 6.22813C0.16321 6.44325 0.054952 6.70449 0.0261863 6.98004C-0.00257943 7.25558 0.0493885 7.53355 0.175762 7.78009C0.302136 8.02663 0.497464 8.23111 0.737964 8.36863V8.42578Z" fill="#005BFF"/>
<path d="M20.1969 16.6551C19.9454 16.7314 19.6769 16.7314 19.4254 16.6551L9.28162 13.7977V20.4555C9.28539 22.9438 10.2755 25.3291 12.0351 27.0886C13.7946 28.8481 16.1799 29.8383 18.6682 29.842H21.3256C23.8139 29.8383 26.1992 28.8481 27.9587 27.0886C29.7182 25.3291 30.7084 22.9438 30.7122 20.4555V13.6977L20.1969 16.6551Z" fill="#005BFF"/>
</svg>
