<svg width="177" height="41" viewBox="0 0 177 41" fill="none" xmlns="http://www.w3.org/2000/svg">
<path d="M49.8225 5.9975H68.3685V11.7615H56.3785V17.6795H68.2585V23.2675H56.3785V29.2735H68.3685V35.0375H49.8225V5.9975ZM81.0924 35.5655C79.3471 35.5655 77.8291 35.1402 76.5384 34.2895C75.2478 33.4242 74.2431 32.2728 73.5244 30.8355C72.8204 29.3835 72.4684 27.7775 72.4684 26.0175C72.4684 24.2575 72.8204 22.6588 73.5244 21.2215C74.2431 19.7695 75.2478 18.6108 76.5384 17.7455C77.8291 16.8802 79.3471 16.4475 81.0924 16.4475C82.2511 16.4475 83.2778 16.6308 84.1724 16.9975C85.0671 17.3495 85.7931 17.7748 86.3504 18.2735C86.9078 18.7575 87.2451 19.2048 87.3624 19.6155V4.76551H94.0504V35.0375H87.4284V32.1115C87.1498 32.6542 86.6951 33.1968 86.0644 33.7395C85.4338 34.2675 84.6931 34.7002 83.8424 35.0375C82.9918 35.3895 82.0751 35.5655 81.0924 35.5655ZM83.1384 30.3075C83.9451 30.3075 84.6638 30.1242 85.2944 29.7575C85.9398 29.3908 86.4458 28.8848 86.8124 28.2395C87.1791 27.5795 87.3624 26.8388 87.3624 26.0175C87.3624 25.1962 87.1791 24.4628 86.8124 23.8175C86.4458 23.1575 85.9398 22.6442 85.2944 22.2775C84.6638 21.8962 83.9451 21.7055 83.1384 21.7055C82.3611 21.7055 81.6571 21.8962 81.0264 22.2775C80.4104 22.6442 79.9191 23.1575 79.5524 23.8175C79.2004 24.4628 79.0244 25.1962 79.0244 26.0175C79.0244 26.8388 79.2004 27.5795 79.5524 28.2395C79.9191 28.8848 80.4104 29.3908 81.0264 29.7575C81.6571 30.1242 82.3611 30.3075 83.1384 30.3075ZM104.263 25.3355C104.263 26.7728 104.534 27.9242 105.077 28.7895C105.619 29.6402 106.529 30.0655 107.805 30.0655C109.11 30.0655 110.027 29.6402 110.555 28.7895C111.097 27.9242 111.369 26.7728 111.369 25.3355V16.9755H117.969V26.0395C117.969 27.9755 117.565 29.6622 116.759 31.0995C115.967 32.5222 114.815 33.6222 113.305 34.3995C111.794 35.1768 109.961 35.5655 107.805 35.5655C105.663 35.5655 103.837 35.1768 102.327 34.3995C100.816 33.6222 99.6646 32.5222 98.8726 31.0995C98.0806 29.6622 97.6846 27.9755 97.6846 26.0395V16.9755H104.263V25.3355ZM121.548 16.9755H139.434L130.414 30.3735H138.73V35.0375H120.096L129.094 21.6175H121.548V16.9755ZM142.018 35.0375V16.9755H148.706V35.0375H142.018ZM145.45 13.2575C144.394 13.2575 143.499 12.8908 142.766 12.1575C142.032 11.4095 141.666 10.5222 141.666 9.49551C141.666 8.46884 142.032 7.5815 142.766 6.8335C143.514 6.07084 144.408 5.6895 145.45 5.6895C146.139 5.6895 146.77 5.8655 147.342 6.2175C147.914 6.55484 148.376 7.00951 148.728 7.58151C149.08 8.1535 149.256 8.7915 149.256 9.49551C149.256 10.5222 148.882 11.4095 148.134 12.1575C147.386 12.8908 146.491 13.2575 145.45 13.2575ZM162.509 35.5655C160.529 35.5655 158.769 35.1622 157.229 34.3555C155.704 33.5342 154.501 32.4122 153.621 30.9895C152.756 29.5522 152.323 27.9095 152.323 26.0615C152.323 24.2135 152.756 22.5708 153.621 21.1335C154.501 19.6815 155.704 18.5375 157.229 17.7015C158.769 16.8655 160.529 16.4475 162.509 16.4475C164.489 16.4475 166.235 16.8655 167.745 17.7015C169.256 18.5375 170.437 19.6815 171.287 21.1335C172.138 22.5708 172.563 24.2135 172.563 26.0615C172.563 27.9095 172.138 29.5522 171.287 30.9895C170.437 32.4122 169.256 33.5342 167.745 34.3555C166.235 35.1622 164.489 35.5655 162.509 35.5655ZM162.509 30.0655C163.272 30.0655 163.932 29.8968 164.489 29.5595C165.047 29.2222 165.479 28.7455 165.787 28.1295C166.095 27.5135 166.249 26.8168 166.249 26.0395C166.249 25.2475 166.095 24.5435 165.787 23.9275C165.479 23.3115 165.047 22.8275 164.489 22.4755C163.932 22.1235 163.272 21.9475 162.509 21.9475C161.747 21.9475 161.079 22.1235 160.507 22.4755C159.95 22.8275 159.51 23.3115 159.187 23.9275C158.879 24.5435 158.725 25.2475 158.725 26.0395C158.725 26.8168 158.879 27.5135 159.187 28.1295C159.51 28.7455 159.95 29.2222 160.507 29.5595C161.079 29.8968 161.747 30.0655 162.509 30.0655Z" fill="white"/>
<path d="M39.6844 37.7428L33.9696 30.5992C33.8038 30.3879 33.5819 30.2275 33.3292 30.1366C33.0765 30.0456 32.8033 30.0277 32.5409 30.0849L19.9969 32.9137L7.45284 30.0563C7.19043 29.9991 6.9172 30.017 6.6645 30.108C6.4118 30.199 6.18986 30.3593 6.02414 30.5707L0.309324 37.7142C0.143496 37.9233 0.0395419 38.1746 0.00924067 38.4398C-0.0210606 38.7049 0.0235018 38.9732 0.137879 39.2143C0.249546 39.4628 0.42992 39.6742 0.657739 39.8235C0.885557 39.9729 1.15132 40.054 1.42371 40.0573H38.57C38.8393 40.0565 39.1029 39.9796 39.3304 39.8356C39.5579 39.6915 39.74 39.486 39.8558 39.2429C39.9702 39.0018 40.0148 38.7335 39.9845 38.4683C39.9542 38.2032 39.8502 37.9518 39.6844 37.7428Z" fill="white"/>
<path d="M0.737964 8.42578L19.8112 13.7977L39.4987 8.26862C39.6537 8.13606 39.7785 7.97184 39.8648 7.78702C39.951 7.60219 39.9967 7.40104 39.9987 7.1971C40.0123 6.88013 39.9199 6.56767 39.7363 6.30899C39.5526 6.0503 39.2881 5.86011 38.9844 5.76839L20.4112 0.0535804C20.1396 -0.0178601 19.8542 -0.0178601 19.5826 0.0535804L1.00942 5.76839C0.7457 5.85328 0.51235 6.013 0.33778 6.22813C0.16321 6.44325 0.054952 6.70449 0.0261863 6.98004C-0.00257943 7.25558 0.0493885 7.53355 0.175762 7.78009C0.302136 8.02663 0.497464 8.23111 0.737964 8.36863V8.42578Z" fill="white"/>
<path d="M20.1969 16.6551C19.9454 16.7314 19.6769 16.7314 19.4254 16.6551L9.28162 13.7977V20.4555C9.28539 22.9438 10.2755 25.3291 12.0351 27.0886C13.7946 28.8481 16.1799 29.8383 18.6682 29.842H21.3256C23.8139 29.8383 26.1992 28.8481 27.9587 27.0886C29.7182 25.3291 30.7084 22.9438 30.7122 20.4555V13.6977L20.1969 16.6551Z" fill="white"/>
</svg>
